<svg xmlns="http://www.w3.org/2000/svg" xmlns:xlink="http://www.w3.org/1999/xlink" width="600" zoomAndPan="magnify" viewBox="0 0 450 146.249994" height="195" preserveAspectRatio="xMidYMid meet" version="1.0"><defs><g/><clipPath id="0da909878f"><path d="M 1.148438 0 L 448.851562 0 L 448.851562 145.503906 L 1.148438 145.503906 Z M 1.148438 0 " clip-rule="nonzero"/></clipPath><clipPath id="7e73243263"><path d="M 203.148438 35.683594 L 265.082031 35.683594 L 265.082031 145.503906 L 203.148438 145.503906 Z M 203.148438 35.683594 " clip-rule="nonzero"/></clipPath></defs><g clip-path="url(#0da909878f)"><path fill="#ffffff" d="M 1.148438 0 L 448.851562 0 L 448.851562 152.964844 L 1.148438 152.964844 Z M 1.148438 0 " fill-opacity="1" fill-rule="nonzero"/><path fill="#ffffff" d="M 1.148438 0 L 448.851562 0 L 448.851562 145.503906 L 1.148438 145.503906 Z M 1.148438 0 " fill-opacity="1" fill-rule="nonzero"/><path fill="#ffffff" d="M 1.148438 0 L 448.851562 0 L 448.851562 145.503906 L 1.148438 145.503906 Z M 1.148438 0 " fill-opacity="1" fill-rule="nonzero"/></g><g clip-path="url(#7e73243263)"><path fill="#ff914d" d="M 265.070312 35.894531 L 225.617188 78.863281 L 244.121094 73.292969 L 217.382812 106.226562 L 231.6875 102.121094 L 203.148438 148.148438 L 249.164062 91.902344 L 231.160156 96.761719 L 259.152344 62.953125 L 241.859375 68.277344 Z M 265.070312 35.894531 " fill-opacity="1" fill-rule="nonzero"/></g><g fill="#000000" fill-opacity="1"><g transform="translate(37.256495, 122.4685)"><g><path d="M 77.578125 0 L 60.25 0 L 50.796875 -40.34375 C 49.640625 -45.101562 48.664062 -50.070312 47.875 -55.25 C 47.082031 -50.925781 46.4375 -47.632812 45.9375 -45.375 C 45.445312 -43.113281 41.929688 -27.988281 35.390625 0 L 18.0625 0 L 0.09375 -69.75 L 14.90625 -69.75 L 25 -24.703125 L 27.28125 -13.8125 C 28.207031 -18.394531 29.101562 -22.773438 29.96875 -26.953125 C 30.84375 -31.128906 34.140625 -45.394531 39.859375 -69.75 L 56.1875 -69.75 L 65 -32.625 C 65.695312 -29.851562 66.867188 -23.582031 68.515625 -13.8125 L 69.75 -19.5625 L 72.375 -30.9375 L 80.796875 -69.75 L 95.59375 -69.75 Z M 77.578125 0 "/></g></g></g><g fill="#ff914d" fill-opacity="1"><g transform="translate(-3.096625, 85.207051)"><g><path d="M 75.625 -21.9375 C 75.625 -14.945312 73.003906 -9.539062 67.765625 -5.71875 C 62.523438 -1.90625 55.25 0 45.9375 0 L 7.46875 0 L 7.46875 -76.875 L 42.671875 -76.875 C 52.054688 -76.875 59.15625 -75.242188 63.96875 -71.984375 C 68.789062 -68.734375 71.203125 -63.925781 71.203125 -57.5625 C 71.203125 -53.195312 69.992188 -49.515625 67.578125 -46.515625 C 65.160156 -43.515625 61.476562 -41.488281 56.53125 -40.4375 C 62.75 -39.707031 67.484375 -37.75 70.734375 -34.5625 C 73.992188 -31.382812 75.625 -27.175781 75.625 -21.9375 Z M 55 -55.390625 C 55 -58.835938 53.898438 -61.289062 51.703125 -62.75 C 49.503906 -64.207031 46.238281 -64.9375 41.90625 -64.9375 L 23.578125 -64.9375 L 23.578125 -45.890625 L 42.015625 -45.890625 C 46.566406 -45.890625 49.867188 -46.679688 51.921875 -48.265625 C 53.972656 -49.847656 55 -52.222656 55 -55.390625 Z M 59.46875 -23.1875 C 59.46875 -30.394531 54.304688 -34 43.984375 -34 L 23.578125 -34 L 23.578125 -11.953125 L 44.578125 -11.953125 C 49.742188 -11.953125 53.515625 -12.882812 55.890625 -14.75 C 58.273438 -16.625 59.46875 -19.4375 59.46875 -23.1875 Z M 59.46875 -23.1875 "/></g></g></g><g fill="#ff914d" fill-opacity="1"><g transform="translate(128.57617, 114.644413)"><g><path d="M 0.984375 0 L 8.484375 -38.71875 L 38.9375 -38.71875 L 37.734375 -32.453125 L 15.390625 -32.453125 L 13.5 -22.734375 L 34.15625 -22.734375 L 32.953125 -16.46875 L 12.28125 -16.46875 L 10.3125 -6.265625 L 33.78125 -6.265625 L 32.53125 0 Z M 0.984375 0 "/></g></g></g><g fill="#000000" fill-opacity="1"><g transform="translate(159.180939, 114.644413)"><g><path d="M 24.296875 0 L 14.015625 -31.078125 C 13.597656 -28.109375 13.25 -25.921875 12.96875 -24.515625 L 8.1875 0 L 0.984375 0 L 8.515625 -38.71875 L 18.140625 -38.71875 L 28.5 -7.359375 L 28.828125 -9.625 C 29.023438 -11.144531 29.289062 -12.738281 29.625 -14.40625 L 34.40625 -38.71875 L 41.609375 -38.71875 L 34.078125 0 Z M 24.296875 0 "/></g></g></g><g fill="#000000" fill-opacity="1"><g transform="translate(192.899723, 114.644413)"><g><path d="M 20.34375 0.515625 C 14.84375 0.515625 10.535156 -0.929688 7.421875 -3.828125 C 4.304688 -6.734375 2.75 -10.796875 2.75 -16.015625 C 2.75 -20.597656 3.703125 -24.664062 5.609375 -28.21875 C 7.523438 -31.769531 10.238281 -34.503906 13.75 -36.421875 C 17.257812 -38.335938 21.304688 -39.296875 25.890625 -39.296875 C 30.066406 -39.296875 33.5625 -38.351562 36.375 -36.46875 C 39.1875 -34.582031 41.078125 -31.941406 42.046875 -28.546875 L 34.296875 -26.40625 C 33.765625 -28.476562 32.738281 -30.082031 31.21875 -31.21875 C 29.695312 -32.351562 27.773438 -32.921875 25.453125 -32.921875 C 22.535156 -32.921875 19.976562 -32.234375 17.78125 -30.859375 C 15.582031 -29.484375 13.894531 -27.53125 12.71875 -25 C 11.550781 -22.476562 10.96875 -19.566406 10.96875 -16.265625 C 10.96875 -13.003906 11.84375 -10.441406 13.59375 -8.578125 C 15.34375 -6.722656 17.8125 -5.796875 21 -5.796875 C 22.976562 -5.796875 24.898438 -6.035156 26.765625 -6.515625 C 28.628906 -6.992188 30.222656 -7.632812 31.546875 -8.4375 L 32.8125 -14.703125 L 23.40625 -14.703125 L 24.484375 -20.421875 L 41.359375 -20.421875 L 38.46875 -4.8125 C 35.613281 -2.851562 32.753906 -1.472656 29.890625 -0.671875 C 27.035156 0.117188 23.851562 0.515625 20.34375 0.515625 Z M 20.34375 0.515625 "/></g></g></g><g fill="#000000" fill-opacity="1"><g transform="translate(229.751158, 114.644413)"><g><path d="M 0.984375 0 L 8.484375 -38.71875 L 38.9375 -38.71875 L 37.734375 -32.453125 L 15.390625 -32.453125 L 13.5 -22.734375 L 34.15625 -22.734375 L 32.953125 -16.46875 L 12.28125 -16.46875 L 10.3125 -6.265625 L 33.78125 -6.265625 L 32.53125 0 Z M 0.984375 0 "/></g></g></g><g fill="#000000" fill-opacity="1"><g transform="translate(260.364767, 114.644413)"><g><path d="M 24.296875 0 L 14.015625 -31.078125 C 13.597656 -28.109375 13.25 -25.921875 12.96875 -24.515625 L 8.1875 0 L 0.984375 0 L 8.515625 -38.71875 L 18.140625 -38.71875 L 28.5 -7.359375 L 28.828125 -9.625 C 29.023438 -11.144531 29.289062 -12.738281 29.625 -14.40625 L 34.40625 -38.71875 L 41.609375 -38.71875 L 34.078125 0 Z M 24.296875 0 "/></g></g></g><g fill="#000000" fill-opacity="1"><g transform="translate(294.083548, 114.644413)"><g><path d="M 26.265625 0 L 29.515625 -16.59375 L 12.3125 -16.59375 L 9.0625 0 L 0.984375 0 L 8.484375 -38.71875 L 16.59375 -38.71875 L 13.609375 -23.296875 L 30.8125 -23.296875 L 33.796875 -38.71875 L 41.609375 -38.71875 L 34.078125 0 Z M 26.265625 0 "/></g></g></g><g fill="#000000" fill-opacity="1"><g transform="translate(327.802329, 114.644413)"><g><path d="M 28.546875 0 L 27.046875 -9.890625 L 12.28125 -9.890625 L 6.921875 0 L -1.15625 0 L 20.46875 -38.71875 L 30.03125 -38.71875 L 36.578125 0 Z M 24.078125 -32.75 C 23.691406 -31.582031 22.789062 -29.644531 21.375 -26.9375 L 15.546875 -16 L 26.40625 -16 L 24.5625 -28.421875 C 24.238281 -30.890625 24.078125 -32.332031 24.078125 -32.75 Z M 24.078125 -32.75 "/></g></g></g><g fill="#000000" fill-opacity="1"><g transform="translate(361.52111, 114.644413)"><g><path d="M 27.75 0 L 21.4375 -14.671875 L 11.921875 -14.671875 L 9.09375 0 L 0.984375 0 L 8.515625 -38.71875 L 26.40625 -38.71875 C 29.320312 -38.71875 31.816406 -38.269531 33.890625 -37.375 C 35.972656 -36.476562 37.554688 -35.195312 38.640625 -33.53125 C 39.722656 -31.863281 40.265625 -29.898438 40.265625 -27.640625 C 40.265625 -24.617188 39.269531 -22.054688 37.28125 -19.953125 C 35.289062 -17.847656 32.59375 -16.535156 29.1875 -16.015625 L 36.71875 0 Z M 23.96875 -21 C 26.625 -21 28.632812 -21.53125 30 -22.59375 C 31.363281 -23.664062 32.046875 -25.191406 32.046875 -27.171875 C 32.046875 -28.878906 31.460938 -30.179688 30.296875 -31.078125 C 29.128906 -31.972656 27.492188 -32.421875 25.390625 -32.421875 L 15.390625 -32.421875 L 13.15625 -21 Z M 23.96875 -21 "/></g></g></g><g fill="#000000" fill-opacity="1"><g transform="translate(395.23989, 114.644413)"><g><path d="M 0.984375 0 L 8.484375 -38.71875 L 16.59375 -38.71875 L 9.0625 0 Z M 0.984375 0 "/></g></g></g><g fill="#000000" fill-opacity="1"><g transform="translate(403.952435, 114.644413)"><g><path d="M 28.546875 0 L 27.046875 -9.890625 L 12.28125 -9.890625 L 6.921875 0 L -1.15625 0 L 20.46875 -38.71875 L 30.03125 -38.71875 L 36.578125 0 Z M 24.078125 -32.75 C 23.691406 -31.582031 22.789062 -29.644531 21.375 -26.9375 L 15.546875 -16 L 26.40625 -16 L 24.5625 -28.421875 C 24.238281 -30.890625 24.078125 -32.332031 24.078125 -32.75 Z M 24.078125 -32.75 "/></g></g></g></svg>